<?xml version="1.0" standalone="no"?>
<!DOCTYPE svg PUBLIC "-//W3C//DTD SVG 20010904//EN"
 "http://www.w3.org/TR/2001/REC-SVG-20010904/DTD/svg10.dtd">
<svg version="1.0" xmlns="http://www.w3.org/2000/svg"
 width="5417.000000pt" height="5417.000000pt" viewBox="0 0 5417.000000 5417.000000"
 preserveAspectRatio="xMidYMid meet">
<metadata>
Created by potrace 1.14, written by Peter Selinger 2001-2017
</metadata>
<g transform="translate(0.000000,5417.000000) scale(0.100000,-0.100000)"
fill="#000000" stroke="none">
<path d="M26587 54097 c-98 -109 -105 -116 -207 -227 -52 -58 -102 -111 -110
-120 -8 -9 -51 -56 -95 -105 -44 -49 -89 -98 -100 -110 -11 -11 -62 -67 -114
-125 -52 -58 -104 -114 -115 -126 -12 -11 -57 -61 -101 -110 -44 -49 -107
-118 -140 -154 -33 -36 -100 -110 -150 -164 -120 -131 -134 -146 -250 -271
-55 -60 -107 -116 -115 -125 -26 -29 -198 -215 -375 -405 -60 -64 -125 -134
-144 -154 -98 -105 -320 -340 -507 -537 -76 -81 -161 -170 -188 -198 -45 -47
-311 -325 -435 -455 -882 -920 -2328 -2366 -3267 -3268 -39 -37 -160 -153
-269 -258 -108 -104 -218 -210 -244 -234 -42 -40 -294 -279 -395 -376 -53 -50
-299 -281 -335 -315 -15 -14 -90 -84 -167 -157 -76 -72 -149 -140 -160 -150
-12 -10 -74 -67 -139 -128 -145 -136 -181 -169 -236 -220 -24 -22 -82 -76
-129 -119 -47 -43 -112 -104 -145 -134 -33 -31 -87 -81 -120 -111 -33 -31
-112 -103 -175 -161 -63 -58 -117 -107 -120 -110 -11 -11 -130 -119 -211 -193
-48 -42 -97 -87 -111 -100 -13 -12 -67 -61 -119 -108 -80 -74 -196 -178 -363
-329 -73 -64 -170 -153 -211 -190 -44 -40 -862 -767 -910 -809 -17 -14 -66
-58 -110 -97 -44 -39 -95 -84 -114 -100 -19 -16 -44 -38 -55 -49 -12 -11 -71
-63 -131 -115 -61 -52 -112 -97 -115 -100 -6 -6 -147 -130 -180 -158 -52 -44
-76 -65 -110 -95 -19 -18 -66 -59 -105 -92 -38 -33 -83 -72 -100 -86 -16 -15
-73 -64 -125 -109 -52 -45 -106 -92 -120 -104 -63 -53 -316 -271 -320 -276 -3
-3 -34 -30 -70 -60 -36 -30 -70 -59 -76 -65 -6 -5 -35 -30 -64 -55 -29 -25
-58 -49 -64 -55 -6 -5 -51 -44 -101 -85 -49 -41 -96 -82 -105 -90 -9 -8 -40
-35 -70 -60 -68 -58 -414 -350 -586 -496 -44 -38 -102 -87 -129 -109 -27 -22
-65 -54 -84 -71 -20 -17 -164 -138 -321 -268 -157 -131 -294 -245 -305 -255
-11 -9 -130 -108 -265 -220 -135 -113 -247 -207 -250 -210 -3 -3 -36 -33 -75
-65 -38 -33 -74 -64 -80 -70 -5 -6 -26 -24 -45 -40 -123 -101 -516 -462 -779
-714 -406 -391 -938 -946 -1247 -1302 -21 -25 -42 -47 -45 -50 -3 -3 -50 -57
-104 -120 -54 -63 -109 -126 -121 -140 -20 -21 -323 -387 -357 -430 -85 -106
-263 -330 -275 -345 -9 -11 -92 -121 -186 -245 -93 -124 -178 -236 -188 -250
-25 -32 -236 -327 -290 -405 -23 -33 -59 -85 -81 -115 -21 -30 -126 -188 -234
-350 -107 -162 -208 -314 -224 -337 -16 -23 -29 -44 -29 -46 0 -3 -17 -32 -38
-64 -75 -112 -377 -612 -474 -783 -14 -25 -51 -90 -83 -145 -31 -55 -73 -129
-92 -165 -20 -36 -48 -87 -63 -115 -151 -274 -241 -445 -393 -750 -136 -271
-242 -493 -327 -680 -21 -47 -44 -97 -102 -225 -14 -30 -44 -100 -68 -154 -23
-54 -45 -106 -50 -115 -4 -9 -13 -29 -20 -46 -7 -16 -18 -43 -26 -60 -7 -16
-30 -70 -50 -120 -20 -49 -42 -103 -49 -120 -59 -132 -375 -954 -390 -1015 -2
-8 -20 -60 -40 -115 -42 -115 -228 -679 -275 -835 -18 -58 -36 -116 -40 -130
-17 -52 -69 -231 -115 -395 -26 -93 -56 -201 -67 -239 -11 -38 -21 -76 -23
-85 -2 -9 -13 -54 -25 -101 -12 -47 -23 -92 -25 -100 -2 -8 -13 -51 -24 -96
-12 -45 -23 -90 -26 -100 -2 -10 -11 -46 -19 -79 -34 -132 -58 -236 -88 -370
-16 -77 -36 -168 -44 -203 -8 -34 -16 -77 -19 -95 -3 -18 -12 -59 -20 -92 -13
-57 -49 -237 -59 -300 -3 -16 -14 -73 -25 -125 -18 -88 -27 -143 -36 -212 -2
-15 -8 -44 -14 -65 -5 -21 -12 -60 -15 -88 -4 -27 -10 -66 -14 -85 -5 -19 -9
-39 -10 -45 -1 -5 -4 -30 -8 -55 -3 -25 -8 -56 -10 -70 -12 -71 -24 -150 -29
-190 -3 -25 -8 -56 -10 -70 -7 -39 -13 -80 -20 -139 -4 -30 -8 -63 -11 -74 -2
-10 -6 -45 -10 -76 -3 -31 -8 -64 -10 -75 -2 -10 -6 -44 -10 -75 -3 -31 -8
-64 -10 -74 -2 -10 -6 -48 -10 -85 -3 -36 -7 -73 -9 -82 -2 -8 -6 -49 -10 -90
-4 -41 -9 -86 -11 -100 -1 -14 -5 -50 -8 -80 -3 -30 -8 -75 -11 -100 -6 -53
-12 -126 -30 -330 -6 -66 -20 -266 -30 -410 -11 -162 -14 -216 -20 -340 -3
-69 -8 -156 -10 -195 -23 -442 -23 -1366 0 -1870 16 -352 17 -372 30 -555 2
-41 7 -111 10 -155 3 -44 8 -102 10 -130 3 -27 7 -81 10 -120 3 -38 7 -90 10
-115 2 -25 7 -76 10 -115 4 -38 8 -83 10 -100 2 -16 7 -61 10 -98 4 -37 8 -76
10 -85 1 -9 6 -53 9 -97 4 -44 9 -87 11 -95 2 -8 6 -42 10 -75 12 -122 16
-150 20 -165 2 -8 7 -44 10 -80 4 -36 9 -74 11 -85 2 -11 11 -72 19 -135 8
-63 17 -124 19 -135 2 -11 7 -42 10 -70 6 -43 27 -178 40 -255 3 -14 12 -68
20 -120 9 -52 18 -106 21 -120 2 -14 14 -79 25 -145 12 -66 29 -163 40 -215
10 -52 21 -112 24 -134 4 -21 8 -41 10 -45 2 -3 7 -24 10 -46 6 -37 16 -84 66
-317 11 -51 33 -151 50 -223 17 -71 42 -182 55 -245 14 -63 30 -128 35 -145 8
-25 35 -133 55 -218 2 -10 7 -27 10 -37 3 -10 8 -27 10 -37 8 -36 54 -210 90
-338 20 -71 38 -137 40 -145 87 -328 348 -1136 515 -1590 24 -63 48 -131 55
-150 33 -89 97 -257 105 -275 5 -11 39 -96 76 -190 68 -172 172 -427 204 -500
10 -22 32 -74 50 -115 18 -41 41 -95 53 -120 11 -25 34 -79 52 -120 33 -76 72
-161 127 -280 17 -36 45 -96 63 -135 18 -38 70 -146 115 -240 45 -93 106 -219
135 -280 55 -116 156 -325 297 -615 47 -96 107 -220 133 -275 26 -55 95 -197
153 -315 57 -118 126 -260 152 -315 26 -55 91 -190 145 -300 91 -187 140 -288
302 -625 36 -74 96 -198 133 -275 37 -77 107 -221 155 -320 48 -99 114 -234
145 -300 32 -66 97 -201 145 -300 155 -319 246 -507 300 -620 29 -60 92 -191
140 -290 85 -175 172 -354 300 -620 34 -71 106 -220 160 -330 54 -110 123
-254 155 -320 72 -151 175 -364 275 -570 83 -172 178 -367 297 -615 42 -85
111 -229 155 -320 44 -91 108 -221 141 -290 33 -69 98 -204 145 -300 46 -96
113 -233 147 -305 35 -71 102 -211 150 -310 162 -335 212 -440 282 -585 38
-80 73 -152 79 -160 5 -8 12 -22 16 -30 11 -27 118 -249 218 -455 54 -110 123
-254 155 -320 53 -110 115 -239 290 -600 34 -71 98 -202 140 -290 43 -88 110
-227 150 -310 40 -82 101 -208 135 -280 117 -242 256 -529 338 -697 l81 -168
20 35 c11 19 24 35 28 35 10 0 -5 -31 -35 -73 l-19 -28 3703 4 c2037 2 3774 7
3859 10 85 3 241 8 345 12 463 13 927 32 1240 50 55 3 134 8 175 10 41 2 122
6 180 10 124 6 240 13 330 20 36 2 103 7 150 10 47 3 110 8 141 11 30 2 89 6
130 9 40 2 103 6 139 9 36 4 94 9 130 11 36 2 88 6 115 9 28 3 88 7 135 11 47
3 101 8 120 10 19 3 69 7 109 10 41 3 93 7 115 10 23 2 70 7 106 10 36 3 85 8
110 10 25 3 72 7 105 10 117 12 149 15 189 19 23 3 73 8 111 11 39 3 104 10
145 15 41 5 102 12 135 15 33 4 71 8 85 10 14 2 54 6 90 10 36 3 101 10 145
16 44 5 96 12 115 14 19 2 62 7 95 11 33 3 67 8 76 9 9 2 61 8 115 15 55 6
110 13 124 15 70 10 109 15 150 20 25 3 56 8 70 10 14 2 48 7 75 10 28 3 61 8
75 10 14 2 48 6 75 10 28 3 77 10 110 15 33 5 80 12 105 15 87 12 116 16 205
30 50 8 110 17 135 20 25 3 61 9 80 11 53 8 212 33 235 38 11 2 43 7 70 10 28
4 57 9 65 11 8 2 33 6 55 10 22 3 65 10 95 15 30 5 70 12 88 15 17 3 46 7 62
10 17 3 45 7 63 10 17 3 82 14 142 25 61 11 126 22 145 25 19 3 85 15 145 26
61 12 121 23 135 25 14 3 59 11 100 19 41 8 86 17 100 19 94 17 172 33 370 72
124 25 236 48 250 50 70 14 640 136 675 146 22 5 49 12 60 14 45 8 80 16 220
49 61 15 121 29 134 31 13 3 141 34 285 70 143 36 268 67 276 68 74 18 415
106 530 138 80 22 163 45 185 50 51 12 487 136 625 178 58 18 114 34 125 37
186 49 1094 340 1428 458 53 19 143 51 200 71 56 19 125 44 152 54 55 21 258
95 317 116 69 25 402 152 508 194 58 23 134 53 170 67 36 14 84 34 107 44 23
11 45 19 48 19 4 0 21 6 38 14 18 8 68 29 112 47 146 59 216 89 248 103 18 8
93 40 167 71 158 68 435 189 535 235 39 18 113 51 165 75 94 42 231 107 485
228 243 116 887 443 1040 527 81 45 155 85 230 125 148 79 211 114 388 217 39
23 88 51 107 61 92 50 382 220 422 248 15 10 29 19 32 19 5 0 306 184 401 244
28 18 124 79 215 136 91 58 170 108 175 112 6 4 120 81 255 170 135 89 247
165 248 170 2 4 8 8 12 8 8 0 50 29 318 217 216 152 741 540 872 645 19 15
148 117 285 226 138 109 286 229 330 266 44 37 87 73 95 79 75 60 529 454 615
533 11 11 38 34 60 53 22 19 90 81 152 139 62 57 123 113 135 124 128 111 762
736 1008 994 99 103 304 323 335 358 6 7 35 39 65 72 30 32 91 99 135 148 44
49 85 94 90 100 6 6 37 43 70 81 32 39 66 77 75 86 8 9 24 27 35 40 11 14 45
54 75 89 30 35 64 75 75 89 11 13 25 29 30 35 27 29 258 310 311 376 32 41 61
77 64 80 17 16 336 427 478 616 48 64 266 362 328 449 496 693 1067 1596 1451
2295 17 30 53 96 80 145 65 117 107 195 178 330 32 61 72 137 91 171 43 79
332 658 374 749 18 39 52 111 75 160 79 167 127 270 167 360 22 50 48 108 58
130 38 81 73 163 131 300 33 77 66 154 74 170 32 66 258 630 350 870 31 83 61
159 65 170 27 64 204 557 293 820 119 349 299 916 377 1190 17 61 47 164 66
230 19 66 37 127 39 135 2 8 11 42 20 75 9 33 18 67 20 75 2 8 24 89 48 180
25 91 48 179 52 195 5 17 9 35 11 40 18 67 121 486 149 605 20 85 42 182 50
215 34 142 159 723 171 790 2 17 7 37 9 45 2 8 7 31 10 50 3 19 8 42 10 50 2
8 7 31 10 50 3 19 17 89 30 155 13 66 26 134 29 150 2 17 19 109 36 205 17 96
33 186 35 200 2 14 8 48 14 77 6 29 13 74 16 100 4 26 8 55 10 63 6 20 13 65
19 115 3 22 12 76 20 120 8 44 17 100 20 125 3 25 8 54 10 65 5 29 15 94 21
140 6 42 16 110 20 135 1 8 6 38 9 65 4 28 9 61 11 75 2 14 16 115 30 225 14
110 28 211 30 225 2 14 7 50 10 80 3 30 8 66 10 80 2 14 7 52 10 85 3 33 8 74
10 90 8 62 15 122 20 180 4 33 8 71 11 85 2 14 7 54 10 90 3 36 7 79 9 95 1
17 6 62 10 100 3 39 8 81 10 95 2 14 6 57 10 95 3 39 8 88 10 110 2 22 7 72
10 110 3 39 8 90 10 115 3 25 7 79 10 120 3 41 7 95 10 120 2 25 7 83 10 130
3 47 8 110 10 140 3 30 7 89 10 130 3 41 7 107 10 145 4 66 9 135 20 335 11
189 16 280 20 380 2 58 7 166 10 240 35 812 40 2098 10 2970 -5 170 -17 484
-20 540 -2 30 -6 118 -9 195 -4 77 -9 172 -11 210 -3 39 -7 117 -10 175 -2 58
-7 134 -10 170 -3 36 -7 101 -10 145 -3 44 -8 116 -11 160 -18 280 -24 366
-38 530 -4 39 -9 99 -12 135 -2 36 -7 85 -9 110 -2 25 -7 77 -10 115 -3 39 -8
88 -10 110 -2 22 -7 72 -10 110 -3 39 -8 88 -11 110 -2 22 -7 67 -10 100 -3
33 -7 76 -9 95 -1 19 -6 64 -9 100 -4 36 -9 81 -11 100 -2 19 -7 62 -10 95 -6
62 -13 128 -20 180 -2 17 -7 63 -10 104 -4 41 -9 84 -11 95 -2 11 -6 48 -9 83
-3 34 -8 71 -10 82 -2 11 -7 51 -10 88 -4 37 -9 75 -10 84 -2 9 -6 40 -10 70
-3 30 -8 65 -10 79 -2 14 -7 54 -10 90 -4 36 -9 72 -10 81 -2 9 -6 40 -10 70
-3 30 -8 65 -10 79 -2 14 -9 63 -15 110 -6 47 -13 96 -15 110 -2 14 -7 50 -10
80 -3 30 -8 62 -10 70 -2 8 -7 38 -10 65 -3 28 -7 61 -10 75 -2 14 -6 45 -9
70 -3 25 -8 56 -10 70 -5 28 -17 114 -21 147 -2 12 -6 34 -9 50 -3 15 -8 48
-11 73 -4 25 -8 56 -10 70 -3 14 -9 57 -15 95 -5 39 -12 79 -14 90 -2 11 -7
40 -10 65 -3 25 -8 56 -11 70 -2 13 -7 42 -10 65 -3 22 -8 47 -10 55 -2 8 -6
35 -9 60 -3 25 -8 55 -10 66 -2 12 -7 39 -11 60 -3 22 -8 50 -10 64 -2 14 -9
54 -14 90 -6 36 -13 76 -16 90 -2 13 -7 40 -10 60 -5 35 -10 61 -20 110 -2 14
-7 41 -10 60 -3 19 -7 46 -10 60 -3 14 -7 41 -10 60 -3 19 -8 42 -10 50 -2 8
-7 35 -10 60 -6 39 -42 239 -59 325 -4 17 -9 44 -12 60 -4 24 -43 229 -80 425
-3 14 -25 126 -50 249 -24 122 -46 233 -48 245 -2 11 -13 66 -25 121 -11 55
-22 111 -25 125 -2 14 -18 95 -35 180 -17 85 -33 166 -36 180 -2 14 -18 90
-34 170 -33 161 -39 187 -46 228 -3 15 -32 160 -65 322 -32 162 -62 310 -65
329 -3 19 -7 37 -9 40 -2 3 -7 24 -10 46 -4 22 -17 94 -31 160 -13 66 -26 131
-29 145 -4 22 -86 433 -100 503 -3 15 -8 39 -11 55 -3 15 -32 160 -65 322 -32
162 -62 310 -65 329 -3 19 -7 37 -9 40 -2 3 -7 22 -10 41 -3 19 -12 71 -21
115 -9 44 -18 91 -21 105 -7 36 -35 172 -40 195 -9 41 -6 73 9 104 18 35 18
35 -20 19 -15 -6 -30 -12 -33 -13 -3 -1 -22 -9 -44 -18 -21 -9 -41 -17 -43
-17 -3 0 -19 -6 -36 -14 -18 -8 -210 -85 -427 -171 -217 -87 -414 -166 -437
-176 -23 -11 -46 -19 -51 -19 -5 0 -22 -6 -38 -14 -91 -45 -1713 -681 -2234
-876 -91 -34 -175 -66 -187 -71 -13 -5 -33 -13 -45 -18 -13 -5 -86 -32 -163
-61 -77 -28 -149 -55 -160 -60 -32 -13 -807 -300 -885 -327 -25 -8 -54 -19
-65 -24 -11 -4 -45 -17 -75 -27 -30 -11 -111 -40 -180 -65 -260 -94 -661 -238
-815 -292 -88 -31 -196 -69 -240 -85 -44 -16 -134 -47 -200 -70 -66 -23 -237
-82 -380 -132 -345 -119 -986 -339 -1005 -343 -8 -3 -195 -65 -415 -138 -542
-182 -1753 -576 -1791 -583 -6 -1 -44 -13 -85 -27 -41 -13 -126 -41 -189 -60
-63 -20 -169 -53 -235 -74 -66 -20 -122 -38 -125 -38 -3 -1 -12 -4 -20 -8 -8
-3 -202 -63 -430 -132 -228 -70 -460 -141 -515 -158 -55 -17 -102 -31 -105
-32 -7 -1 -121 -36 -150 -46 -30 -10 -171 -52 -185 -55 -5 -1 -102 -29 -215
-63 -113 -34 -241 -73 -285 -86 -44 -13 -117 -35 -161 -48 -73 -22 -81 -23
-77 -7 6 22 -316 987 -431 1295 -15 39 -29 77 -31 85 -8 33 -284 766 -310 825
-21 49 -165 414 -165 420 0 3 -9 24 -19 48 -11 23 -69 161 -129 307 -100 241
-272 642 -335 780 -13 30 -48 109 -77 175 -29 66 -69 156 -90 200 -21 44 -58
125 -83 180 -25 55 -70 152 -100 215 -30 63 -66 140 -80 170 -161 351 -662
1347 -893 1778 -19 34 -50 92 -70 130 -20 37 -49 90 -64 117 -15 28 -49 91
-75 140 -26 50 -51 95 -55 100 -4 6 -29 51 -55 100 -27 50 -59 107 -72 127
-13 21 -23 40 -23 42 0 5 -369 652 -425 746 -18 30 -44 73 -56 96 -167 290
-600 1000 -804 1319 -17 28 -65 102 -105 165 -357 559 -955 1453 -1231 1837
-24 34 -64 92 -89 128 -25 36 -63 90 -85 120 -22 30 -58 80 -81 112 -215 304
-964 1317 -1057 1429 -9 10 -125 163 -257 339 -133 176 -250 331 -261 345 -10
14 -33 43 -49 65 -17 22 -36 47 -43 55 -7 9 -86 115 -177 235 -91 121 -167
222 -170 225 -3 3 -32 41 -65 85 -32 44 -63 85 -67 90 -4 6 -18 24 -31 40 -21
26 -136 179 -605 800 -62 83 -118 157 -125 165 -7 8 -88 116 -182 240 -93 124
-174 230 -180 236 -5 7 -19 24 -30 39 -11 16 -29 41 -41 56 l-21 29 -66 -73z"/>
</g>
</svg>
